<svg width="695" height="164" viewBox="0 0 695 164" fill="none" xmlns="http://www.w3.org/2000/svg">
<path d="M189 65.1217V0.878327H216.49C221.217 0.878327 225.353 1.81939 228.898 3.70152C232.444 5.58365 235.201 8.22909 237.17 11.6378C239.14 15.0466 240.125 19.0304 240.125 23.5894C240.125 28.1901 239.109 32.174 237.077 35.5409C235.066 38.9078 232.236 41.5009 228.587 43.3203C224.959 45.1397 220.72 46.0494 215.868 46.0494H199.449V32.4981H212.385C214.417 32.4981 216.148 32.1426 217.579 31.4316C219.03 30.6996 220.139 29.6644 220.906 28.326C221.694 26.9876 222.088 25.4087 222.088 23.5894C222.088 21.749 221.694 20.1806 220.906 18.884C220.139 17.5665 219.03 16.5627 217.579 15.8726C216.148 15.1616 214.417 14.8061 212.385 14.8061H206.29V65.1217H189Z" fill="#D4D4D4"/>
<path d="M246.469 65.1217V0.878327H273.959C278.686 0.878327 282.822 1.7462 286.367 3.48194C289.912 5.21768 292.669 7.71673 294.639 10.9791C296.609 14.2414 297.593 18.1521 297.593 22.711C297.593 27.3118 296.577 31.1911 294.546 34.3489C292.535 37.5067 289.705 39.8907 286.056 41.5009C282.428 43.1112 278.188 43.9164 273.337 43.9164H256.917V30.365H269.854C271.886 30.365 273.617 30.1141 275.047 29.6122C276.499 29.0894 277.608 28.2633 278.375 27.134C279.163 26.0048 279.557 24.5304 279.557 22.711C279.557 20.8707 279.163 19.3755 278.375 18.2253C277.608 17.0542 276.499 16.1968 275.047 15.653C273.617 15.0884 271.886 14.8061 269.854 14.8061H263.759V65.1217H246.469ZM283.786 35.635L299.708 65.1217H280.925L265.376 35.635H283.786Z" fill="#D4D4D4"/>
<path d="M366.661 33C366.661 40.1521 365.283 46.1854 362.525 51.0998C359.768 55.9933 356.047 59.7053 351.361 62.2357C346.676 64.7452 341.451 66 335.688 66C329.883 66 324.638 64.7348 319.953 62.2044C315.288 59.653 311.577 55.9306 308.82 51.0371C306.083 46.1226 304.715 40.1103 304.715 33C304.715 25.8479 306.083 19.8251 308.82 14.9316C311.577 10.0171 315.288 6.30513 319.953 3.79563C324.638 1.26521 329.883 0 335.688 0C341.451 0 346.676 1.26521 351.361 3.79563C356.047 6.30513 359.768 10.0171 362.525 14.9316C365.283 19.8251 366.661 25.8479 366.661 33ZM348.873 33C348.873 29.1521 348.366 25.9106 347.35 23.2757C346.355 20.6198 344.872 18.6122 342.903 17.2528C340.954 15.8726 338.549 15.1825 335.688 15.1825C332.827 15.1825 330.412 15.8726 328.442 17.2528C326.493 18.6122 325.011 20.6198 323.995 23.2757C323 25.9106 322.503 29.1521 322.503 33C322.503 36.8479 323 40.0998 323.995 42.7557C325.011 45.3907 326.493 47.3983 328.442 48.7785C330.412 50.1378 332.827 50.8175 335.688 50.8175C338.549 50.8175 340.954 50.1378 342.903 48.7785C344.872 47.3983 346.355 45.3907 347.35 42.7557C348.366 40.0998 348.873 36.8479 348.873 33Z" fill="#D4D4D4"/>
<path d="M399.166 65.1217H374.661V0.878327H398.917C405.469 0.878327 411.129 2.16445 415.897 4.73669C420.686 7.28802 424.376 10.9686 426.968 15.7785C429.58 20.5675 430.886 26.308 430.886 33C430.886 39.692 429.59 45.443 426.999 50.2528C424.407 55.0418 420.738 58.7224 415.99 61.2947C411.243 63.846 405.635 65.1217 399.166 65.1217ZM391.952 50.3156H398.544C401.696 50.3156 404.38 49.8032 406.599 48.7785C408.838 47.7538 410.538 45.9867 411.699 43.4772C412.88 40.9677 413.471 37.4753 413.471 33C413.471 28.5247 412.87 25.0323 411.668 22.5228C410.486 20.0133 408.744 18.2462 406.443 17.2215C404.163 16.1968 401.364 15.6844 398.047 15.6844H391.952V50.3156Z" fill="#D4D4D4"/>
<path d="M476.576 0.878327H493.867V42.0342C493.867 46.9278 492.706 51.1625 490.384 54.7386C488.082 58.2937 484.869 61.0437 480.743 62.9886C476.618 64.9125 471.829 65.8745 466.376 65.8745C460.882 65.8745 456.073 64.9125 451.947 62.9886C447.821 61.0437 444.608 58.2937 442.307 54.7386C440.026 51.1625 438.886 46.9278 438.886 42.0342V0.878327H456.176V40.5285C456.176 42.5152 456.612 44.2928 457.482 45.8612C458.353 47.4087 459.555 48.6217 461.09 49.5C462.645 50.3783 464.407 50.8175 466.376 50.8175C468.367 50.8175 470.129 50.3783 471.663 49.5C473.197 48.6217 474.399 47.4087 475.27 45.8612C476.141 44.2928 476.576 42.5152 476.576 40.5285V0.878327Z" fill="#D4D4D4"/>
<path d="M561.543 24.9696H544.004C543.88 23.5057 543.548 22.1778 543.009 20.9857C542.491 19.7937 541.765 18.769 540.832 17.9116C539.92 17.0333 538.811 16.3641 537.505 15.904C536.198 15.423 534.716 15.1825 533.058 15.1825C530.155 15.1825 527.698 15.8935 525.687 17.3156C523.697 18.7376 522.184 20.7766 521.147 23.4325C520.131 26.0884 519.623 29.2776 519.623 33C519.623 36.9316 520.142 40.2253 521.178 42.8812C522.236 45.5162 523.759 47.5028 525.75 48.8413C527.74 50.1587 530.134 50.8175 532.933 50.8175C534.53 50.8175 535.96 50.6188 537.225 50.2215C538.489 49.8032 539.588 49.2072 540.521 48.4335C541.454 47.6597 542.211 46.7291 542.791 45.6416C543.392 44.5333 543.797 43.289 544.004 41.9087L561.543 42.0342C561.336 44.7528 560.579 47.5238 559.273 50.347C557.967 53.1492 556.111 55.7424 553.706 58.1264C551.322 60.4895 548.368 62.3926 544.844 63.8355C541.319 65.2785 537.225 66 532.56 66C526.714 66 521.468 64.7348 516.825 62.2044C512.201 59.674 508.542 55.9515 505.847 51.0371C503.173 46.1226 501.835 40.1103 501.835 33C501.835 25.8479 503.204 19.8251 505.94 14.9316C508.677 10.0171 512.367 6.30513 517.011 3.79563C521.655 1.26521 526.838 0 532.56 0C536.582 0 540.283 0.554182 543.662 1.66255C547.041 2.77091 550.006 4.39164 552.556 6.52471C555.106 8.63688 557.158 11.2405 558.713 14.3356C560.268 17.4306 561.211 20.9753 561.543 24.9696Z" fill="#D4D4D4"/>
<path d="M567.646 14.9316V0.878327H623V14.9316H603.844V65.1217H586.802V14.9316H567.646Z" fill="#D4D4D4"/>
<path d="M241.771 97.8783V162.122H227.429L204.556 128.369H204.186V162.122H187V97.8783H201.589L224.091 131.506H224.586V97.8783H241.771Z" fill="#D4D4D4"/>
<path d="M311.224 130C311.224 137.152 309.854 143.185 307.113 148.1C304.372 152.993 300.674 156.705 296.017 159.236C291.36 161.745 286.167 163 280.438 163C274.669 163 269.455 161.735 264.798 159.204C260.162 156.653 256.474 152.931 253.733 148.037C251.013 143.123 249.653 137.11 249.653 130C249.653 122.848 251.013 116.825 253.733 111.932C256.474 107.017 260.162 103.305 264.798 100.796C269.455 98.2652 274.669 97 280.438 97C286.167 97 291.36 98.2652 296.017 100.796C300.674 103.305 304.372 107.017 307.113 111.932C309.854 116.825 311.224 122.848 311.224 130ZM293.544 130C293.544 126.152 293.039 122.911 292.029 120.276C291.04 117.62 289.567 115.612 287.609 114.253C285.672 112.873 283.282 112.183 280.438 112.183C277.595 112.183 275.194 112.873 273.237 114.253C271.3 115.612 269.826 117.62 268.817 120.276C267.827 122.911 267.333 126.152 267.333 130C267.333 133.848 267.827 137.1 268.817 139.756C269.826 142.391 271.3 144.398 273.237 145.779C275.194 147.138 277.595 147.817 280.438 147.817C283.282 147.817 285.672 147.138 287.609 145.779C289.567 144.398 291.04 142.391 292.029 139.756C293.039 137.1 293.544 133.848 293.544 130Z" fill="#D4D4D4"/>
<path d="M314.469 111.932V97.8783H369.488V111.932H350.448V162.122H333.509V111.932H314.469Z" fill="#D4D4D4"/>
<path d="M393.296 162.122V97.8783H437.805V111.932H410.481V122.973H435.085V137.027H410.481V162.122H393.296Z" fill="#D4D4D4"/>
<path d="M505.449 130C505.449 137.152 504.079 143.185 501.339 148.1C498.598 152.993 494.899 156.705 490.242 159.236C485.585 161.745 480.392 163 474.664 163C468.894 163 463.681 161.735 459.024 159.204C454.388 156.653 450.699 152.931 447.958 148.037C445.238 143.123 443.878 137.11 443.878 130C443.878 122.848 445.238 116.825 447.958 111.932C450.699 107.017 454.388 103.305 459.024 100.796C463.681 98.2652 468.894 97 474.664 97C480.392 97 485.585 98.2652 490.242 100.796C494.899 103.305 498.598 107.017 501.339 111.932C504.079 116.825 505.449 122.848 505.449 130ZM487.769 130C487.769 126.152 487.265 122.911 486.255 120.276C485.266 117.62 483.792 115.612 481.835 114.253C479.898 112.873 477.508 112.183 474.664 112.183C471.82 112.183 469.42 112.873 467.462 114.253C465.525 115.612 464.052 117.62 463.042 120.276C462.053 122.911 461.558 126.152 461.558 130C461.558 133.848 462.053 137.1 463.042 139.756C464.052 142.391 465.525 144.398 467.462 145.779C469.42 147.138 471.82 147.817 474.664 147.817C477.508 147.817 479.898 147.138 481.835 145.779C483.792 144.398 485.266 142.391 486.255 139.756C487.265 137.1 487.769 133.848 487.769 130Z" fill="#D4D4D4"/>
<path d="M550.863 97.8783H568.048V139.034C568.048 143.928 566.894 148.163 564.586 151.739C562.299 155.294 559.105 158.044 555.005 159.989C550.904 161.913 546.144 162.875 540.725 162.875C535.264 162.875 530.483 161.913 526.383 159.989C522.282 158.044 519.088 155.294 516.801 151.739C514.534 148.163 513.401 143.928 513.401 139.034V97.8783H530.586V137.529C530.586 139.515 531.019 141.293 531.885 142.861C532.75 144.409 533.945 145.622 535.47 146.5C537.015 147.378 538.767 147.817 540.725 147.817C542.703 147.817 544.454 147.378 545.979 146.5C547.504 145.622 548.699 144.409 549.565 142.861C550.43 141.293 550.863 139.515 550.863 137.529V97.8783Z" fill="#D4D4D4"/>
<path d="M630.987 97.8783V162.122H616.645L593.772 128.369H593.402V162.122H576.216V97.8783H590.805L613.307 131.506H613.802V97.8783H630.987Z" fill="#D4D4D4"/>
<path d="M663.473 162.122H639.116V97.8783H663.225C669.737 97.8783 675.362 99.1644 680.102 101.737C684.862 104.288 688.53 107.969 691.105 112.779C693.702 117.567 695 123.308 695 130C695 136.692 693.712 142.443 691.136 147.253C688.561 152.042 684.913 155.722 680.194 158.295C675.476 160.846 669.902 162.122 663.473 162.122ZM656.302 147.316H662.854C665.987 147.316 668.655 146.803 670.86 145.779C673.085 144.754 674.775 142.987 675.929 140.477C677.104 137.968 677.691 134.475 677.691 130C677.691 125.525 677.093 122.032 675.898 119.523C674.724 117.013 672.993 115.246 670.705 114.221C668.439 113.197 665.657 112.684 662.36 112.684H656.302V147.316Z" fill="#D4D4D4"/>
<path d="M18.6273 125C13.4828 125 9.07013 123.194 5.38918 119.582C1.75258 115.926 -0.0435473 111.489 0.000801482 106.272C-0.0435473 101.189 1.75258 96.8418 5.38918 93.23C9.07013 89.6183 13.4828 87.8124 18.6273 87.8124C23.5057 87.8124 27.8075 89.6183 31.5328 93.23C35.3024 96.8418 37.2094 101.189 37.2538 106.272C37.2094 109.75 36.3003 112.916 34.5263 115.77C32.7967 118.579 30.5349 120.831 27.741 122.525C24.947 124.175 21.9091 125 18.6273 125ZM18.6273 55.9755C13.4828 55.9755 9.07013 54.1697 5.38918 50.5579C1.75258 46.9016 -0.0435473 42.4649 0.000801482 37.248C-0.0435473 32.1648 1.75258 27.8173 5.38918 24.2056C9.07013 20.5938 13.4828 18.7879 18.6273 18.7879C23.5057 18.7879 27.8075 20.5938 31.5328 24.2056C35.3024 27.8173 37.2094 32.1648 37.2538 37.248C37.2094 40.7259 36.3003 43.8918 34.5263 46.7455C32.7967 49.5547 30.5349 51.8064 27.741 53.5008C24.947 55.1506 21.9091 55.9755 18.6273 55.9755Z" fill="#D4D4D4"/>
<path d="M124 0L80.0947 164H48.9619L92.8672 0H124Z" fill="#D4D4D4"/>
</svg>
